inDegrees=no
num_controls=7
num_derivatives=13
num_iterations=115
num_multipliers=7
num_parameters=0
num_slacks=7
num_states=26
objective=0.431042
objective_accelerations=0.050455
objective_balance=0.006796
objective_effort=0.031334
objective_height=0.341305
objective_ligament=0.001152
solver_duration=1474.954641
status=Solve_Succeeded
success=true
DataType=double
version=3
OpenSimVersion=4.5
endheader
time	/jointset/ground_pelvis/pelvis_tilt/value	/jointset/ground_pelvis/pelvis_tx/value	/jointset/ground_pelvis/pelvis_ty/value	/jointset/hip_l/hip_flexion_l/value	/jointset/hip_l/hip_adduction_l/value	/jointset/hip_l/hip_rotation_l/value	/jointset/back/lumbar_extension/value	/jointset/patellofemoral_l/patellar_flexion_l/value	/jointset/knee_l/knee_flexion_l/value	/jointset/knee_l/knee_adduction_l/value	/jointset/knee_l/knee_rotation_l/value	/jointset/ankle_l/ankle_angle_l/value	/jointset/subtalar_l/subtalar_angle_l/value	/jointset/ground_pelvis/pelvis_tilt/speed	/jointset/ground_pelvis/pelvis_tx/speed	/jointset/ground_pelvis/pelvis_ty/speed	/jointset/hip_l/hip_flexion_l/speed	/jointset/hip_l/hip_adduction_l/speed	/jointset/hip_l/hip_rotation_l/speed	/jointset/back/lumbar_extension/speed	/jointset/patellofemoral_l/patellar_flexion_l/speed	/jointset/knee_l/knee_flexion_l/speed	/jointset/knee_l/knee_adduction_l/speed	/jointset/knee_l/knee_rotation_l/speed	/jointset/ankle_l/ankle_angle_l/speed	/jointset/subtalar_l/subtalar_angle_l/speed	/forceset/tau_hip_flexion_l	/forceset/tau_hip_adduction_l	/forceset/tau_hip_rotation_l	/forceset/tau_knee_flexion_l	/forceset/tau_ankle_angle_l	/forceset/tau_subtalar_angle_l	/forceset/tau_lumbar_extension	lambda_cid13_p0	lambda_cid13_p1	lambda_cid13_p2	lambda_cid13_p3	lambda_cid13_p4	lambda_cid13_p5	lambda_cid14_p0	/jointset/ground_pelvis/pelvis_tilt/accel	/jointset/ground_pelvis/pelvis_tx/accel	/jointset/ground_pelvis/pelvis_ty/accel	/jointset/hip_l/hip_flexion_l/accel	/jointset/hip_l/hip_adduction_l/accel	/jointset/hip_l/hip_rotation_l/accel	/jointset/back/lumbar_extension/accel	/jointset/patellofemoral_l/patellar_flexion_l/accel	/jointset/knee_l/knee_flexion_l/accel	/jointset/knee_l/knee_adduction_l/accel	/jointset/knee_l/knee_rotation_l/accel	/jointset/ankle_l/ankle_angle_l/accel	/jointset/subtalar_l/subtalar_angle_l/accel	gamma_cid13_p0	gamma_cid13_p1	gamma_cid13_p2	gamma_cid13_p3	gamma_cid13_p4	gamma_cid13_p5	gamma_cid14_p0
1	-0.4513542929375978	-0.05465152860587226	0.5889264062982404	1.789494442076237	-0.2716984577426952	0.2266371272561399	-0.4363287872443923	1.432083100464453	1.4320831004656	-0.1744881414131181	0.1745316946851543	0.311447290653973	0.05014789440566717	-0.009832341160475235	0.000628590792707343	-0.003492948912559743	0.01636705600199592	0.0008804494796362784	0.003287316396600119	-3.113685683562279e-06	0.008451662902865037	0.008451662902864834	-6.223620005155601e-05	-3.689460785118233e-06	0.00239639834947534	0.001776928438980826	-0.3333137321395597	0.004204053938213479	-0.01212611578183173	-0.37069587264446	0.05145654720743632	0.01646764486290868	0.2971366935593104	-29.6712999577632	-0.6530437995532078	-1.787358947598197	16.57847939855689	-729.836698266912	-56.01863346609921	-0.03915448382180459	1.035028191260146	-0.02289130507002176	1.819186625543311	-5.705894792293619	-0.6079489120683627	-2.088827496923281	-0.01045855348426919	-5.562587840475305	-5.562587840475592	-0.06571210764140804	0.01863746211086819	-1.192988608587503	-1.097606269197877	5.302668003192564e-10	1.60308015326165e-09	-8.308668803777587e-09	-1.333905408048196e-09	2.023435233435486e-09	-4.470159952172018e-09	1.395323052185398e-09
1.01	-0.451401249643256	-0.05464638526017525	0.5889823353939149	1.789373398309723	-0.2717192046333208	0.2265635405344934	-0.4363288733107213	1.431889855128949	1.431889855129944	-0.1744888365858877	0.1745316904747688	0.3114119207748187	0.05011205523514275	0.0004405756004420014	0.000402338338377615	0.01467615653012008	-0.04057109060131932	-0.005026727270485467	-0.01800046953158064	-1.237152264644272e-05	-0.04709660932592907	-0.04709660932593319	-7.69180596502637e-05	2.02420185537901e-06	-0.009470712587194258	-0.00893947686048051	-0.3332227979668293	0.004201524244872403	-0.01215144965271347	-0.3706271499045178	0.05158257989199456	0.0164970014006899	0.2970779147084931	-29.6186818212915	-0.6800011631483633	-1.77735585007558	16.48674127137966	-729.7074800635894	-56.04847883161774	-0.03916535345220646	1.023360089005018	-0.0221518046190531	1.815378968134852	-5.687066692788842	-0.5816439046861097	-2.148131682239058	0.004099809715267184	-5.550327151041003	-5.550327151041416	0.0306323171453532	-0.008596114363186993	-1.183622121766437	-1.057870213910171	-2.131430058799705e-09	-1.788179703447981e-09	4.694289387796794e-08	6.977278109542026e-09	-8.928837874030458e-09	3.665985014877069e-08	-8.209809762991016e-09
1.02	-0.451345489847206	-0.05464343635682244	0.5892198768369171	1.788683114657489	-0.2717989316610879	0.2262772004452697	-0.4363290001137109	1.431141251023765	1.431141251024607	-0.1744896828688008	0.1745317165144696	0.3112578698291857	0.04996920950090573	0.01071095918125997	0.0001897023238647917	0.03282952055298285	-0.09748092114216844	-0.01091557794868812	-0.03926335711870509	-1.126101890639864e-05	-0.1026200910331052	-0.1026200910331122	-9.245822867066857e-05	2.36055634281822e-06	-0.02133981494625441	-0.01962438430353844	-0.3331318637940929	0.004198994551530823	-0.01217678352359484	-0.3705584271645759	0.0517086125765515	0.01652635793847006	0.2970191358576818	-29.57427199614358	-0.7042969641282587	-1.769175844325563	16.44554888199903	-729.6814248665622	-56.02531338371303	-0.03916977138718102	1.034521555240295	-0.02016801710664186	1.8160383415799	-5.700231579800398	-0.6042836976845439	-2.083847828712022	-0.008384885343691421	-5.55762973615171	-5.557629736151785	-0.06588376952574766	0.01756200048025897	-1.193386893065616	-1.091306697917197	-4.333211452170888e-09	-5.872143710018316e-09	1.016845333699628e-07	1.406640477581913e-08	-1.961493412401543e-08	7.659087771699759e-08	-1.778460412180112e-08
1.03	-0.4511868744997501	-0.05464250760003839	0.5896388198799555	1.78742384175008	-0.2719373955898644	0.2257784341714959	-0.4363291350281568	1.429837653105259	1.429837653105025	-0.1744906854490429	0.174531733121749	0.3109850959935529	0.04971977533507527	0.0210284018196205	2.108229243304611e-06	0.05095124462738151	-0.1543727096076679	-0.01676789811368632	-0.06047989338380778	-2.143663377064033e-05	-0.1580837755356858	-0.1580837755357023	-0.0001056457511853979	1.607291517103534e-06	-0.03321732847479942	-0.03024654241682439	-0.3328981817021227	0.004285623567047736	-0.01226015738387969	-0.3702192088450552	0.05187639358145767	0.01660882683561669	0.2968759291993491	-29.49334620112293	-0.7666788745967159	-1.745070942985976	16.32605722893582	-729.3678386717321	-56.01024236445873	-0.03919869522304795	1.032800390079396	-0.01714195469524765	1.809056801860612	-5.683509614277237	-0.5743328114972117	-2.139076837715905	0.001808885862942869	-5.538374707607978	-5.538374707609393	0.03131366114160898	-0.008833279596148024	-1.185286773323706	-1.045301773172892	-6.530299830585458e-09	-9.963176126281111e-09	1.56420969564103e-07	2.114306147422568e-08	-3.029831428361795e-08	1.165096707695846e-07	-2.735908890452585e-08
1.04	-0.4509245957715219	-0.05464327215401162	0.590238743636036	1.785595679531146	-0.272134108047409	0.2250677984726096	-0.4363295431416582	1.427979890961668	1.427979890960358	-0.1744917499235589	0.174531754338454	0.3105934763845198	0.04936459330708424	0.03144363533579964	-0.0001489598275919606	0.06902566316141213	-0.2112587834472679	-0.02256528370227455	-0.08163724214117117	-6.5900831804958e-05	-0.2134529360501363	-0.2134529360501633	-0.0001048370834621926	3.282441404976003e-06	-0.04510896962633539	-0.04077395673565437	-0.3326644996101545	0.004372252582564212	-0.01234353124416517	-0.3698799905255344	0.05204417458636406	0.01669129573276279	0.2967327225410141	-29.4206921472698	-0.8263766112828522	-1.72280588424196	16.25689928791302	-729.1579764964794	-55.94280494688581	-0.03922114825088011	1.054079730804021	-0.01286280954939788	1.806577233506294	-5.699088654620504	-0.5932967824025517	-2.072010327164163	-0.01524260197767805	-5.538724938525664	-5.538724938525953	-0.0630845314781609	0.01804768342298134	-1.196212417663809	-1.072357939026006	-9.102914829781756e-09	-1.45992042610515e-08	2.10088707313914e-07	2.824860342560579e-08	-4.081437187644521e-08	1.537869034775859e-07	-3.667689625059209e-08
1.05	-0.4505577436938722	-0.05464534188252541	0.5910191024479492	1.78319889006284	-0.2723884634850978	0.2241460052117617	-0.4363304767684889	1.425568978738923	1.425568978738011	-0.1744927902378076	0.1745318060428336	0.3100827916051583	0.04890469092801751	0.04193649367819879	-0.0002566712857206351	0.08703111514154274	-0.2680783259763167	-0.02829046273386443	-0.1027030149842096	-0.0001177831177613312	-0.2687071353629878	-0.2687071353630155	-0.0001022334583466279	7.233552130478202e-06	-0.0570378809043394	-0.05118189091272309	-0.3321539279652134	0.004458842057105446	-0.01248557261971653	-0.3693896528973832	0.05241690744486647	0.016856850714848	0.2964106342764347	-29.25637367466447	-0.9506544336189736	-1.676028363598574	16.07222390659348	-728.6373336862022	-55.94885770020905	-0.03927041088384194	1.048347548503828	-0.008470982737801645	1.795271197099273	-5.670269110483124	-0.5598662702331013	-2.121136907071264	0.0002951705442320403	-5.515402165905077	-5.515402165905016	0.03206165994894415	-0.008465787191843689	-1.192709362282043	-1.02134580322777	-1.168726503587748e-08	-1.925226351202526e-08	2.637230482373398e-07	3.535504804114131e-08	-5.132520063906075e-08	1.909815874248189e-07	-4.598668242676275e-08
